<svg width="200" height="200" viewBox="0 0 200 200" xmlns="http://www.w3.org/2000/svg">
  <defs>
    <clipPath id="badgeClip">
      <circle cx="100" cy="100" r="96"/>
    </clipPath>
  </defs>

  <circle cx="100" cy="100" r="98" fill="#0F172A"/>
  <circle cx="100" cy="100" r="96" fill="#0B1220" stroke="#B3272B" stroke-width="1.5"/>

  <g clip-path="url(#badgeClip)">
    <!-- rising sun rays -->
    <g fill="#B3272B">
      <polygon points="100,150 60,10 80,10"/>
      <polygon points="100,150 92,6 108,6"/>
      <polygon points="100,150 120,10 140,10"/>
      <polygon points="100,150 30,30 48,18"/>
      <polygon points="100,150 152,18 170,30"/>
    </g>
    <g fill="#F7F8FA">
      <polygon points="100,150 76,10 92,8"/>
      <polygon points="100,150 108,8 124,10"/>
      <polygon points="100,150 44,20 62,12"/>
      <polygon points="100,150 138,12 156,20"/>
    </g>

    <!-- sun disc -->
    <circle cx="100" cy="118" r="30" fill="#B3272B"/>

    <!-- Mt Fuji silhouette -->
    <polygon points="30,150 78,84 92,100 100,88 108,100 122,84 170,150" fill="#F7F8FA"/>
    <polygon points="78,84 92,100 100,88 96,94 84,96" fill="#0B1220" opacity="0.14"/>
    <polygon points="122,84 108,100 100,88 104,94 116,96" fill="#0B1220" opacity="0.14"/>

    <!-- base line / road -->
    <rect x="18" y="150" width="164" height="5" fill="#F7F8FA"/>
    <rect x="18" y="157" width="164" height="2.5" fill="#B3272B"/>

    <!-- small car silhouette -->
    <g transform="translate(122,132) scale(0.95)">
      <path d="M0 18 L4 8 Q7 2 16 2 L34 2 Q42 2 46 8 L50 18 Z" fill="#B3272B"/>
      <rect x="-2" y="17" width="54" height="7" rx="2" fill="#B3272B"/>
      <circle cx="10" cy="25" r="5" fill="#0B1220"/>
      <circle cx="40" cy="25" r="5" fill="#0B1220"/>
    </g>

    <!-- sakura blossoms -->
    <g fill="#F7F8FA">
      <g transform="translate(34,32) scale(0.55)">
        <circle cx="0" cy="-9" r="7"/>
        <circle cx="8.5" cy="-3" r="7"/>
        <circle cx="5.2" cy="7" r="7"/>
        <circle cx="-5.2" cy="7" r="7"/>
        <circle cx="-8.5" cy="-3" r="7"/>
        <circle cx="0" cy="0" r="4.5" fill="#B3272B"/>
      </g>
      <g transform="translate(164,34) scale(0.5)">
        <circle cx="0" cy="-9" r="7"/>
        <circle cx="8.5" cy="-3" r="7"/>
        <circle cx="5.2" cy="7" r="7"/>
        <circle cx="-5.2" cy="7" r="7"/>
        <circle cx="-8.5" cy="-3" r="7"/>
        <circle cx="0" cy="0" r="4.5" fill="#B3272B"/>
      </g>
      <g transform="translate(56,170) scale(0.42)">
        <circle cx="0" cy="-9" r="7"/>
        <circle cx="8.5" cy="-3" r="7"/>
        <circle cx="5.2" cy="7" r="7"/>
        <circle cx="-5.2" cy="7" r="7"/>
        <circle cx="-8.5" cy="-3" r="7"/>
        <circle cx="0" cy="0" r="4.5" fill="#B3272B"/>
      </g>
      <g transform="translate(148,168) scale(0.42)">
        <circle cx="0" cy="-9" r="7"/>
        <circle cx="8.5" cy="-3" r="7"/>
        <circle cx="5.2" cy="7" r="7"/>
        <circle cx="-5.2" cy="7" r="7"/>
        <circle cx="-8.5" cy="-3" r="7"/>
        <circle cx="0" cy="0" r="4.5" fill="#B3272B"/>
      </g>
    </g>
  </g>
</svg>
